# xmcd CD database file generated by OrangeCD 5.2
#
# Track frame offsets:
#	182
#	10882
#	22937
#	36157
#	50720
#	76910
#	85887
#	103235
#	118510
#	132120
#	145590
#	162090
#	173112
#	196110
#	214830
#	230662
#	244437
#	262512
#	275670
#	298217
#	323922
#
# Disc length: 4627 seconds
#
# Revision: 0
# Processed by: cddbd v1.5.1PL0 Copyright (c) Steve Scherf et al.
# Submitted via: OrangeCD 5.2
#
DISCID=26121115
DTITLE=Various Artist - Chess R&B Legends In London
DYEAR=1995
DGENRE=Blues Chess
TTITLE0=Chuck Berry - After It's Over
TTITLE1=Chuck Berry - St. Louis Blues
TTITLE2=Chuck Berry - Why Should We End This Way
TTITLE3=Chuck Berry - Let's Boogie
TTITLE4=Chuck Berry - Mean Old World
TTITLE5=Howlin' Wolf - The Red Rooster
TTITLE6=Howlin' Wolf - The Red Rooster(Rehearsal And Final Take)
TTITLE7=Howlin' Wolf - I Ain't Superstitious
TTITLE8=Howlin' Wolf - Who's Been Talking
TTITLE9=Howlin' Wolf - Poor Boy
TTITLE10=Howlin' Wolf - Rockin' Daddy
TTITLE11=Muddy Waters - Key To The Highway
TTITLE12=Muddy Waters - Who's Gonna Be Your Sweet Man When I'm Gone
TTITLE13=Muddy Waters - I'm Ready
TTITLE14=Muddy Waters - Blind Man Blues
TTITLE15=Muddy Waters - Walkin' Blues
TTITLE16=Bo Diddley - Don't Want No Lyin' Woman
TTITLE17=Bo Diddley - Bo Diddley
TTITLE18=Bo Diddley - Make A Hit Record
TTITLE19=Bo Diddley - Do The Robot
TTITLE20=Bo Diddley - Get Out Of My Life
EXTD=
EXTT0=
EXTT1=
EXTT2=
EXTT3=
EXTT4=
EXTT5=
EXTT6=
EXTT7=
EXTT8=
EXTT9=
EXTT10=
EXTT11=
EXTT12=
EXTT13=
EXTT14=
EXTT15=
EXTT16=
EXTT17=
EXTT18=
EXTT19=
EXTT20=
PLAYORDER=
